<svg width="42" height="49" viewBox="0 0 42 49" fill="none" xmlns="http://www.w3.org/2000/svg">
<path d="M17.5 25.5325L12.9675 21L10.5 23.4675L17.5 30.4675L31.5 16.4675L29.0325 14L17.5 25.5325Z" fill="#05422C"/>
<path d="M21 49L10.192 43.2373C7.11084 41.598 4.5342 39.1507 2.73862 36.158C0.943041 33.1653 -0.00369786 29.7401 1.08545e-05 26.25V3.5C0.000937439 2.57203 0.369984 1.68233 1.02616 1.02615C1.68234 0.369973 2.57204 0.000926584 3.50001 0H38.5C39.428 0.000926584 40.3177 0.369973 40.9739 1.02615C41.63 1.68233 41.9991 2.57203 42 3.5V26.25C42.0037 29.7401 41.057 33.1653 39.2614 36.158C37.4658 39.1507 34.8892 41.598 31.808 43.2373L21 49ZM3.50001 3.5V26.25C3.49711 29.1057 4.27194 31.9082 5.74135 34.3568C7.21075 36.8054 9.31925 38.8076 11.8405 40.1485L21 45.0327L30.1595 40.1503C32.681 38.8092 34.7897 36.8067 36.2591 34.3578C37.7285 31.9089 38.5032 29.106 38.5 26.25V3.5H3.50001Z" fill="#05422C"/>
</svg>
