<svg width="48" height="48" viewBox="0 0 48 48" fill="none" xmlns="http://www.w3.org/2000/svg">
<path d="M8.4 0C9.4192 0 10.3768 0.2716 11.2 0.7504C12.0513 0.258903 13.017 0.000148436 14 0.000142193C14.983 0.00013595 15.9486 0.258878 16.7999 0.750364C17.6512 1.24185 18.3582 1.94876 18.8497 2.80005C19.3412 3.65134 19.6 4.61701 19.6 5.6V8.4H21C21.3713 8.4 21.7274 8.5475 21.99 8.81005C22.2525 9.0726 22.4 9.4287 22.4 9.8V22.4C22.4 23.8852 21.81 25.3096 20.7598 26.3598C19.7096 27.41 18.2852 28 16.8 28H5.6C4.11479 28 2.69041 27.41 1.6402 26.3598C0.589998 25.3096 0 23.8852 0 22.4V9.8C0 9.4287 0.1475 9.0726 0.41005 8.81005C0.672601 8.5475 1.0287 8.4 1.4 8.4H2.8V5.6C2.8 4.11479 3.39 2.69041 4.4402 1.6402C5.49041 0.589998 6.91479 0 8.4 0ZM5.6 8.4H11.2V5.6C11.2 4.85739 10.905 4.1452 10.3799 3.6201C9.8548 3.095 9.14261 2.8 8.4 2.8C7.65739 2.8 6.9452 3.095 6.4201 3.6201C5.895 4.1452 5.6 4.85739 5.6 5.6V8.4ZM14 5.6V8.4H16.8V5.6C16.8003 5.17249 16.7027 4.75059 16.5148 4.36663C16.3268 3.98267 16.0534 3.64686 15.7155 3.38494C15.3776 3.12302 14.9842 2.94194 14.5655 2.8556C14.1468 2.76925 13.7139 2.77992 13.3 2.8868C13.748 3.6904 14 4.6172 14 5.6ZM22.4 5.838V5.6H31.5C34.2076 5.6 36.4 7.7952 36.4 10.5V14H38.8696C39.65 14 40.415 14.2175 41.0787 14.628C41.7424 15.0385 42.2786 15.6258 42.6272 16.324L47.1576 25.382C47.4495 25.9643 47.6019 26.6066 47.6028 27.258V37.8C47.6028 38.9139 47.1603 39.9822 46.3727 40.7698C45.585 41.5575 44.5167 42 43.4028 42H39.0628C38.7415 43.5824 37.883 45.0051 36.6328 46.0269C35.3825 47.0488 33.8175 47.607 32.2028 47.607C30.5881 47.607 29.0231 47.0488 27.7728 46.0269C26.5226 45.0051 25.6641 43.5824 25.3428 42H22.2628C21.9415 43.5824 21.083 45.0051 19.8328 46.0269C18.5825 47.0488 17.0175 47.607 15.4028 47.607C13.7881 47.607 12.2231 47.0488 10.9728 46.0269C9.72262 45.0051 8.86412 43.5824 8.5428 42H7.8176C6.51804 42 5.2717 41.4838 4.35278 40.5648C3.43385 39.6459 2.9176 38.3996 2.9176 37.1V30.3632C3.7604 30.646 4.662 30.8 5.6 30.8H5.7176V37.1C5.7176 38.2592 6.6584 39.2 7.8176 39.2H8.5428C8.86412 37.6176 9.72262 36.1949 10.9728 35.1731C12.2231 34.1512 13.7881 33.593 15.4028 33.593C17.0175 33.593 18.5825 34.1512 19.8328 35.1731C21.083 36.1949 21.9415 37.6176 22.2628 39.2H25.3428C25.7138 37.381 26.7921 35.7839 28.3407 34.76C29.8892 33.736 31.781 33.3691 33.6 33.74V10.5C33.6 9.94305 33.3787 9.4089 32.9849 9.01508C32.5911 8.62125 32.057 8.4 31.5 8.4H24.962C24.7525 7.8092 24.4139 7.27261 23.9706 6.82938C23.5274 6.38615 22.9908 6.04745 22.4 5.838ZM36.4 35C37.744 36.008 38.7156 37.492 39.06 39.2H43.4C43.7713 39.2 44.1274 39.0525 44.3899 38.79C44.6525 38.5274 44.8 38.1713 44.8 37.8V28H36.4V35ZM36.4 25.2H43.9376L40.124 17.5728C40.0076 17.3405 39.8289 17.1453 39.6079 17.0088C39.3868 16.8723 39.1322 16.8 38.8724 16.8H36.4V25.2ZM15.4 36.4C14.2861 36.4 13.2178 36.8425 12.4302 37.6301C11.6425 38.4178 11.2 39.4861 11.2 40.6C11.2 41.7139 11.6425 42.7822 12.4302 43.5698C13.2178 44.3575 14.2861 44.8 15.4 44.8C16.5139 44.8 17.5822 44.3575 18.3698 43.5698C19.1575 42.7822 19.6 41.7139 19.6 40.6C19.6 39.4861 19.1575 38.4178 18.3698 37.6301C17.5822 36.8425 16.5139 36.4 15.4 36.4ZM28 40.6C28 41.1516 28.1086 41.6977 28.3197 42.2073C28.5308 42.7168 28.8401 43.1798 29.2302 43.5698C29.6202 43.9599 30.0832 44.2692 30.5927 44.4803C31.1023 44.6914 31.6484 44.8 32.2 44.8C32.7516 44.8 33.2977 44.6914 33.8073 44.4803C34.3168 44.2692 34.7798 43.9599 35.1698 43.5698C35.5599 43.1798 35.8692 42.7168 36.0803 42.2073C36.2914 41.6977 36.4 41.1516 36.4 40.6C36.4 39.4861 35.9575 38.4178 35.1698 37.6301C34.3822 36.8425 33.3139 36.4 32.2 36.4C31.0861 36.4 30.0178 36.8425 29.2302 37.6301C28.4425 38.4178 28 39.4861 28 40.6Z" fill="#05422C"/>
</svg>
