<svg width="47" height="43" viewBox="0 0 47 43" fill="none" xmlns="http://www.w3.org/2000/svg">
<path d="M39.0133 27.6284C39.83 25.6451 40.2733 23.5218 40.2733 21.1884C40.2733 19.5084 40.0167 17.8984 39.5733 16.4051C38.0567 16.7551 36.47 16.9418 34.8133 16.9418C31.4206 16.9454 28.0767 16.1333 25.0636 14.574C22.0504 13.0146 19.4563 10.7537 17.5 7.98177C15.4072 13.0455 11.4593 17.1186 6.46333 19.3684C6.37 19.9518 6.37 20.5818 6.37 21.1884C6.37 23.4161 6.80877 25.6219 7.66126 27.68C8.51374 29.7381 9.76325 31.6081 11.3384 33.1833C14.5197 36.3646 18.8344 38.1518 23.3333 38.1518C25.7833 38.1518 28.14 37.6151 30.2633 36.6584C31.5933 39.2018 32.2 40.4618 32.1533 40.4618C28.3267 41.7451 25.3633 42.3751 23.3333 42.3751C17.6867 42.3751 12.2967 40.1584 8.33 36.1684C5.91733 33.7632 4.12386 30.8088 3.10333 27.5584H0V16.9418H2.54333C3.3139 13.191 5.08548 9.71872 7.67011 6.89348C10.2547 4.06824 13.556 1.99538 17.2236 0.89487C20.8912 -0.205644 24.7883 -0.292766 28.5014 0.642749C32.2145 1.57826 35.605 3.50152 38.3133 6.20843C41.2539 9.13736 43.2596 12.8727 44.0767 16.9418H46.6667V27.5584H46.5267L38.22 35.1884L25.8533 33.7884V29.8918H37.1233L39.0133 27.6284ZM16.9633 20.6518C17.6633 20.6518 18.34 20.9318 18.83 21.4451C19.3224 21.9416 19.5988 22.6125 19.5988 23.3118C19.5988 24.011 19.3224 24.682 18.83 25.1784C18.34 25.6684 17.6633 25.9484 16.9633 25.9484C15.4933 25.9484 14.3033 24.7818 14.3033 23.3118C14.3033 21.8418 15.4933 20.6518 16.9633 20.6518ZM29.68 20.6518C31.15 20.6518 32.3167 21.8418 32.3167 23.3118C32.3167 24.7818 31.15 25.9484 29.68 25.9484C28.21 25.9484 27.02 24.7818 27.02 23.3118C27.02 22.6063 27.3003 21.9297 27.7991 21.4309C28.2979 20.932 28.9745 20.6518 29.68 20.6518Z" fill="#05422C"/>
</svg>
