<svg width="54" height="37" viewBox="0 0 54 37" fill="none" xmlns="http://www.w3.org/2000/svg">
<path d="M53.5222 12.5976L48.1628 2.31631C47.7892 1.60482 47.1526 1.06725 46.3886 0.818031C45.6246 0.568809 44.7935 0.627615 44.0722 0.981931L38.8878 3.58506H35.1034L27.7972 0.281931C27.1335 -0.030947 26.3771 -0.0855338 25.6753 0.128806L14.8691 3.27881L9.81594 0.741307C9.09371 0.392641 8.26462 0.336823 7.50217 0.585535C6.73973 0.834247 6.10302 1.36821 5.72531 2.07568L0.365936 12.3788C0.17123 12.7373 0.051223 13.1316 0.0131636 13.5378C-0.0248959 13.9441 0.0197824 14.3538 0.144499 14.7422C0.269216 15.1307 0.471384 15.4898 0.738789 15.798C1.00619 16.1061 1.33329 16.3569 1.70031 16.5351L6.99406 19.1819L18.8503 28.4351C19.1808 28.7094 19.57 28.904 19.9878 29.0038L32.6753 32.1757C32.9109 32.2371 33.1537 32.2665 33.3972 32.2632C34.209 32.2609 34.9871 31.9386 35.5628 31.3663L43.6128 23.3163H43.7003L47.0253 19.3569L52.1878 16.7757C52.5537 16.5905 52.8794 16.3348 53.1459 16.0232C53.4125 15.7116 53.6147 15.3502 53.7409 14.9601C53.8634 14.5715 53.9072 14.1624 53.8696 13.7568C53.8321 13.3511 53.714 12.957 53.5222 12.5976ZM42.4753 20.6038L33.8347 14.3257C33.6072 14.1636 33.3339 14.0783 33.0545 14.0822C32.7752 14.0861 32.5044 14.1791 32.2816 14.3476L29.4816 16.4476C28.4957 17.1826 27.2988 17.5796 26.0691 17.5796C24.8393 17.5796 23.6425 17.1826 22.6566 16.4476L21.4753 15.5507C21.4199 15.5162 21.3746 15.4677 21.3439 15.4101C21.3131 15.3525 21.2981 15.2878 21.3003 15.2226C21.2951 15.1614 21.3043 15.0999 21.3271 15.0429C21.3498 14.986 21.3856 14.9351 21.4316 14.8944L29.9847 6.31943C30.0726 6.25148 30.1798 6.21318 30.2909 6.21006H38.4066L44.6191 18.1101L42.4753 20.6038ZM2.66281 13.9319C2.63917 13.8759 2.62884 13.8151 2.63263 13.7544C2.63643 13.6936 2.65425 13.6346 2.68469 13.5819L8.06594 3.27881C8.10556 3.21007 8.16314 3.1534 8.2325 3.11486C8.30185 3.07633 8.38039 3.05739 8.45969 3.06006C8.52149 3.0514 8.58423 3.06708 8.63469 3.10381L12.9222 5.22568L7.12531 16.3163L2.88156 14.1726C2.82925 14.1516 2.78238 14.1191 2.74449 14.0774C2.70659 14.0357 2.67867 13.986 2.66281 13.9319ZM33.7253 29.5069C33.6713 29.5594 33.6047 29.597 33.5319 29.6162C33.459 29.6353 33.3825 29.6354 33.3097 29.6163L20.6222 26.4663L20.4691 26.3788L9.35656 17.6944L15.5691 5.79443L26.4191 2.64443C26.5209 2.61964 26.628 2.62728 26.7253 2.66631L29.1972 3.78193C28.7955 3.93888 28.4305 4.1772 28.1253 4.48193L19.5722 13.0351C19.2585 13.3435 19.0155 13.7164 18.86 14.1279C18.7045 14.5394 18.6401 14.9798 18.6712 15.4186C18.7024 15.8574 18.8285 16.2842 19.0407 16.6696C19.2529 17.055 19.5462 17.3897 19.9003 17.6507L21.0816 18.5476C22.526 19.6134 24.2739 20.1885 26.0691 20.1885C27.8642 20.1885 29.6121 19.6134 31.0566 18.5476L33.0909 17.0163L40.6816 22.5507L33.7253 29.5069ZM51.2253 14.1507C51.2109 14.2081 51.1838 14.2615 51.1459 14.3069C51.108 14.3523 51.0604 14.3887 51.0066 14.4132L46.7628 16.5351L40.9659 5.46631L45.2534 3.32256C45.3554 3.27636 45.4712 3.27103 45.577 3.30766C45.6828 3.34428 45.7706 3.42007 45.8222 3.51943L51.2034 13.8226C51.2337 13.8713 51.2515 13.9267 51.2553 13.9839C51.2591 14.0411 51.2488 14.0984 51.2253 14.1507ZM24.7128 35.8288C24.6409 36.1124 24.4778 36.3646 24.2485 36.5464C24.0193 36.7282 23.7366 36.8296 23.4441 36.8351L23.1159 36.7913L16.5316 35.1288C16.0613 35.0172 15.6257 34.7918 15.2628 34.4726L10.3409 30.1851C10.1866 30.0814 10.056 29.9461 9.95785 29.7882C9.8597 29.6303 9.79622 29.4534 9.77162 29.2691C9.74702 29.0848 9.76186 28.8973 9.81515 28.7192C9.86844 28.5411 9.95897 28.3763 10.0807 28.2358C10.2025 28.0953 10.3527 27.9823 10.5215 27.9042C10.6902 27.8261 10.8736 27.7848 11.0596 27.783C11.2455 27.7811 11.4297 27.8188 11.5999 27.8935C11.7702 27.9682 11.9227 28.0782 12.0472 28.2163L16.9909 32.5038C17.0419 32.5458 17.1017 32.5757 17.1659 32.5913L23.7722 34.2319C24.1084 34.3194 24.3962 34.5366 24.5725 34.836C24.7488 35.1353 24.7993 35.4923 24.7128 35.8288Z" fill="#05422C"/>
</svg>
