<svg width="42" height="42" viewBox="0 0 42 42" fill="none" xmlns="http://www.w3.org/2000/svg">
<path d="M41.0979 1.61004C40.7766 1.11665 40.3374 0.711097 39.82 0.430004C39.3026 0.148912 38.7234 0.00114017 38.1346 3.89014e-05H27.8446C27.1763 -0.00312495 26.5214 0.186761 25.9584 0.546875C25.3955 0.90699 24.9485 1.42201 24.6713 2.03004L20.8166 10.3134L16.9433 2.03004C16.666 1.42201 16.219 0.90699 15.6561 0.546875C15.0931 0.186761 14.4382 -0.00312495 13.7699 3.89014e-05H3.48459C2.89607 0.00263099 2.3177 0.153584 1.80298 0.438939C1.28826 0.724293 0.85381 1.13483 0.539804 1.63259C0.225798 2.13035 0.0423779 2.69925 0.00650767 3.28668C-0.0293625 3.87411 0.0834753 4.46111 0.334585 4.99337L9.03792 23.7067C8.33617 25.3357 7.97108 27.0897 7.96459 28.8634C7.96459 32.267 9.31667 35.5312 11.7234 37.9379C14.1301 40.3446 17.3943 41.6967 20.7979 41.6967C24.2015 41.6967 27.4657 40.3446 29.8725 37.9379C32.2792 35.5312 33.6313 32.267 33.6313 28.8634C33.6362 27.0961 33.2705 25.3473 32.5579 23.73L41.3079 4.99337C41.5571 4.45646 41.6684 3.86587 41.6317 3.27509C41.595 2.68432 41.4116 2.11202 41.0979 1.61004ZM2.43459 4.01337C2.3526 3.83142 2.31613 3.63225 2.32833 3.43306C2.34052 3.23386 2.40102 3.04063 2.50459 2.87004C2.60904 2.70483 2.75378 2.5689 2.92521 2.47502C3.09664 2.38114 3.28913 2.3324 3.48459 2.33337H13.7746C13.9993 2.33258 14.2196 2.3958 14.4096 2.51564C14.5997 2.63547 14.7517 2.80696 14.8479 3.01004L20.9379 16.03H20.7979C18.784 16.0336 16.7992 16.5105 15.0036 17.4225C13.208 18.3345 11.652 19.6559 10.4613 21.28L2.43459 4.01337ZM20.7979 39.3634C18.7212 39.3634 16.6911 38.7476 14.9644 37.5938C13.2377 36.44 11.8919 34.8002 11.0972 32.8815C10.3025 30.9629 10.0945 28.8517 10.4997 26.8149C10.9048 24.7781 11.9048 22.9072 13.3733 21.4387C14.8417 19.9703 16.7127 18.9703 18.7495 18.5651C20.7863 18.16 22.8975 18.3679 24.8161 19.1626C26.7347 19.9574 28.3746 21.3032 29.5283 23.0299C30.6821 24.7566 31.2979 26.7867 31.2979 28.8634C31.2979 30.2423 31.0263 31.6076 30.4987 32.8815C29.971 34.1555 29.1976 35.313 28.2225 36.288C27.2475 37.263 26.09 38.0364 24.8161 38.5641C23.5422 39.0918 22.1768 39.3634 20.7979 39.3634ZM39.2079 4.01337L31.1346 21.28C29.3176 18.7849 26.6557 17.0352 23.6446 16.3567L22.1046 13.0434L26.7712 3.01004C26.8674 2.80696 27.0194 2.63547 27.2095 2.51564C27.3996 2.3958 27.6199 2.33258 27.8446 2.33337H38.1346C38.3305 2.32968 38.524 2.37726 38.6959 2.4714C38.8678 2.56553 39.0122 2.70295 39.1146 2.87004C39.2262 3.03688 39.2934 3.22948 39.3098 3.42958C39.3261 3.62968 39.291 3.83063 39.2079 4.01337Z" fill="#05422C"/>
</svg>
