<svg width="56" height="56" viewBox="0 0 56 56" fill="none" xmlns="http://www.w3.org/2000/svg">
<path d="M37.334 12.167H39.2939C40.7911 12.1671 42.1682 12.9783 42.9209 14.2744V14.2734L44.4111 16.8809V16.8818C44.4186 16.8952 44.4247 16.9212 44.4043 16.9561C44.3948 16.9723 44.3823 16.9834 44.3711 16.9902C44.3614 16.9961 44.3502 16.9999 44.334 17C40.8378 17 38 19.8378 38 23.334V30.334C38.0002 33.83 40.838 36.667 44.334 36.667H50.167C50.5442 36.667 50.834 36.9568 50.834 37.334V39.667C50.834 43.1027 48.1854 45.9028 44.8135 46.1475C44.5445 42.2616 41.2853 39.1672 37.334 39.167C33.3759 39.167 30.112 42.2718 29.8525 46.167H26.1484C25.889 42.2718 22.6251 39.167 18.667 39.167C14.7155 39.167 11.4555 42.2614 11.1865 46.1475C7.81488 45.9025 5.16699 43.1025 5.16699 39.667V35C5.16717 33.9931 5.99306 33.1672 7 33.167H29.167C32.663 33.167 35.4998 30.33 35.5 26.834V14C35.5002 13.0558 36.2267 12.271 37.1475 12.1768L37.334 12.167Z" fill="#05422C" stroke="#05422C"/>
<path d="M18.667 42.5C20.968 42.5002 22.833 44.3659 22.833 46.667C22.8328 48.9679 20.9679 50.8328 18.667 50.833C16.3659 50.833 14.5002 48.968 14.5 46.667C14.5 44.3658 16.3658 42.5 18.667 42.5Z" fill="#C3D2CC" stroke="#C3D2CC"/>
<path d="M37.334 42.5C39.635 42.5002 41.5 44.3659 41.5 46.667C41.4998 48.9679 39.6349 50.8328 37.334 50.833C35.0329 50.833 33.1672 48.968 33.167 46.667C33.167 44.3658 35.0328 42.5 37.334 42.5Z" fill="#C3D2CC" stroke="#C3D2CC"/>
<path d="M51.3333 29.2367V32.6667H44.3333C43.05 32.6667 42 31.6167 42 30.3333V23.3333C42 22.05 43.05 21 44.3333 21H47.3433L50.7267 26.9267C51.1233 27.6267 51.3333 28.42 51.3333 29.2367Z" fill="#C3D2CC"/>
<path d="M30.5193 4.66699H13.276C9.09935 4.66699 5.59935 7.65366 4.82935 11.6203H15.026C15.9127 11.6203 16.6127 12.3437 16.6127 13.2303C16.6127 14.117 15.9127 14.817 15.026 14.817H4.66602V18.037H10.7327C11.6193 18.037 12.3427 18.7603 12.3427 19.647C12.3427 20.5337 11.6193 21.2337 10.7327 21.2337H4.66602V24.4537H6.46268C7.34935 24.4537 8.07268 25.177 8.07268 26.0637C8.07268 26.9503 7.34935 27.6503 6.46268 27.6503H4.66602V28.187C4.66602 29.4703 5.71602 30.5203 6.99935 30.5203H28.3493C30.7293 30.5203 32.666 28.5837 32.666 26.2037V6.81366C32.666 5.62366 31.7093 4.66699 30.5193 4.66699Z" fill="#05422C"/>
<path d="M4.82967 11.6201H4.47967H2.19301C1.30634 11.6201 0.583008 12.3435 0.583008 13.2301C0.583008 14.1168 1.30634 14.8168 2.19301 14.8168H4.31634H4.66634V13.2768C4.66634 12.7168 4.73634 12.1568 4.82967 11.6201Z" fill="#05422C"/>
<path d="M4.31634 18.0371H2.19301C1.30634 18.0371 0.583008 18.7604 0.583008 19.6471C0.583008 20.5338 1.30634 21.2338 2.19301 21.2338H4.31634H4.66634V18.0371H4.31634Z" fill="#05422C"/>
<path d="M4.31634 24.4541H2.19301C1.30634 24.4541 0.583008 25.1774 0.583008 26.0641C0.583008 26.9508 1.30634 27.6508 2.19301 27.6508H4.31634H4.66634V24.4541H4.31634Z" fill="#05422C"/>
</svg>
