<svg width="272" height="32" viewBox="0 0 272 32" fill="none" xmlns="http://www.w3.org/2000/svg">
<rect width="56" height="32" rx="6" fill="white"/>
<circle cx="22" cy="16" r="9" fill="#E80B26"/>
<circle cx="34" cy="16" r="9" fill="#F59D31"/>
<path d="M28 22.7083C29.8413 21.0603 31 18.6655 31 16C31 13.3345 29.8413 10.9397 28 9.29175C26.1587 10.9397 25 13.3345 25 16C25 18.6655 26.1587 21.0603 28 22.7083Z" fill="#FC6020"/>
<rect x="72" width="56" height="32" rx="6" fill="white"/>
<path d="M100.604 14.064C100.583 15.5597 102.013 16.3944 103.089 16.8906C104.195 17.3998 104.567 17.7263 104.563 18.1816C104.554 18.8785 103.68 19.186 102.862 19.198C101.435 19.219 100.606 18.8336 99.946 18.542L99.432 20.8175C100.094 21.106 101.319 21.3576 102.59 21.3686C105.573 21.3686 107.524 19.9758 107.535 17.8162C107.547 15.0754 103.527 14.9237 103.555 13.6986C103.564 13.3272 103.939 12.9308 104.76 12.83C105.166 12.779 106.288 12.7401 107.56 13.2942L108.06 11.0927C107.376 10.857 106.496 10.6314 105.402 10.6314C102.594 10.6314 100.619 12.0432 100.604 14.064ZM112.857 10.8211C112.312 10.8211 111.853 11.1216 111.648 11.5829L107.387 21.2069H110.368L110.961 19.6563H114.604L114.948 21.2069H117.575L115.282 10.8211H112.857ZM113.274 13.6267L114.134 17.5266H111.778L113.274 13.6267ZM96.9895 10.8211L94.64 21.2069H97.4803L99.8288 10.8211H96.9895ZM92.7876 10.8211L89.8312 17.89L88.6353 11.8794C88.4949 11.2085 87.9408 10.8211 87.3255 10.8211H82.4924L82.4248 11.1226C83.417 11.3263 84.5442 11.6548 85.2271 12.0062C85.6451 12.2209 85.7644 12.4086 85.9016 12.9188L88.1667 21.2069H91.1685L95.7704 10.8211H92.7876Z" fill="url(#paint0_linear_1_14387)"/>
<rect x="144" width="56" height="32" rx="6" fill="white"/>
<path d="M181.701 18.4183C180.365 23.7783 174.934 27.0365 169.582 25.7004C164.222 24.3643 160.963 18.934 162.3 13.5817C163.636 8.22169 169.058 4.96347 174.419 6.29958C179.771 7.62787 183.037 13.0582 181.701 18.4183Z" fill="url(#paint1_linear_1_14387)"/>
<path d="M176.761 14.754C176.956 13.4259 175.948 12.7071 174.558 12.2306L175.011 10.4259L173.917 10.1525L173.479 11.9103C173.19 11.84 172.894 11.7696 172.597 11.7071L173.034 9.94151L171.94 9.66808L171.495 11.465C171.253 11.4103 171.019 11.3556 170.792 11.3009V11.2931L169.276 10.9181L168.987 12.09C168.987 12.09 169.8 12.2775 169.784 12.2853C170.229 12.3946 170.308 12.6915 170.292 12.9259L169.776 14.9806C169.808 14.9884 169.847 14.9962 169.894 15.0196C169.854 15.0118 169.815 15.004 169.776 14.9884L169.058 17.8634C169.003 17.9962 168.862 18.1993 168.558 18.1212C168.565 18.1368 167.761 17.9259 167.761 17.9259L167.214 19.1837L168.644 19.5431C168.909 19.6134 169.167 19.6759 169.425 19.7462L168.972 21.5665L170.065 21.84L170.519 20.0353C170.815 20.1134 171.112 20.1915 171.394 20.2618L170.948 22.0587L172.042 22.3321L172.495 20.5118C174.37 20.8634 175.776 20.7228 176.362 19.0275C176.839 17.6681 176.339 16.879 175.354 16.3634C176.081 16.1993 176.62 15.7228 176.761 14.754ZM174.253 18.2696C173.917 19.629 171.62 18.8946 170.878 18.7071L171.479 16.2931C172.222 16.4806 174.612 16.8478 174.253 18.2696ZM174.597 14.7306C174.284 15.9728 172.378 15.34 171.761 15.1837L172.308 12.9962C172.925 13.1525 174.917 13.4415 174.597 14.7306Z" fill="white"/>
<rect x="216" width="56" height="32" rx="6" fill="white"/>
<mask id="mask0_1_14387" style="mask-type:luminance" maskUnits="userSpaceOnUse" x="234" y="6" width="20" height="20">
<path d="M234 6H254V26H234V6Z" fill="white"/>
</mask>
<g mask="url(#mask0_1_14387)">
<path d="M235.951 6.34085H252.049C252.261 6.34084 252.47 6.38246 252.665 6.46336C252.861 6.54426 253.038 6.66283 253.188 6.81233C253.337 6.96182 253.456 7.13929 253.537 7.33462C253.618 7.52995 253.659 7.7393 253.659 7.95073V24.0495C253.659 24.2609 253.618 24.4703 253.537 24.6656C253.456 24.8609 253.337 25.0384 253.188 25.1878C253.038 25.3373 252.861 25.4559 252.665 25.5368C252.47 25.6177 252.261 25.6593 252.049 25.6593H235.95C235.524 25.6593 235.114 25.4897 234.812 25.1879C234.51 24.886 234.341 24.4766 234.341 24.0497V7.95061C234.341 7.52367 234.51 7.11422 234.812 6.81233C235.114 6.51045 235.524 6.34085 235.951 6.34085Z" fill="#FDB913"/>
<path d="M252.049 6.34073C252.476 6.34085 252.886 6.51052 253.187 6.81244C253.489 7.11436 253.659 7.52379 253.659 7.95072V24.0494C253.659 24.4763 253.489 24.8857 253.187 25.1876C252.886 25.4895 252.476 25.6592 252.049 25.6593H235.951C235.739 25.6593 235.53 25.6177 235.334 25.5368C235.139 25.4559 234.962 25.3373 234.812 25.1878C234.663 25.0383 234.544 24.8609 234.463 24.6655C234.382 24.4702 234.341 24.2608 234.341 24.0494V7.95072C234.341 7.73929 234.382 7.52992 234.463 7.33458C234.544 7.13923 234.663 6.96173 234.812 6.81222C234.962 6.66271 235.139 6.54412 235.334 6.46322C235.53 6.38232 235.739 6.3407 235.951 6.34073H252.049ZM252.049 6H235.951C235.433 6.00055 234.938 6.20625 234.572 6.57196C234.206 6.93768 234.001 7.43354 234 7.95072V24.0494C234.001 24.5665 234.206 25.0624 234.572 25.428C234.938 25.7937 235.433 25.9994 235.951 26H252.049C252.566 25.9994 253.062 25.7937 253.428 25.428C253.793 25.0623 253.999 24.5665 254 24.0494V7.95072C253.999 7.43357 253.794 6.93773 253.428 6.57201C253.062 6.2063 252.566 6.00058 252.049 6Z" fill="white"/>
<path d="M245.127 16.2085L245.126 12.7497L246.028 12.5355V12.989C246.028 12.989 246.262 12.3927 246.805 12.2543C246.886 12.2282 246.972 12.2224 247.056 12.2374V13.1199C246.893 13.1221 246.733 13.1555 246.583 13.2184C246.249 13.3501 246.081 13.6376 246.081 14.0765L246.082 15.9863L245.127 16.2085ZM240.368 17.3333C240.368 17.3333 240.221 17.1132 240.221 16.3349V14.6129L239.756 14.7234V14.0138L240.222 13.9039V13.1304L241.182 12.9037V13.6771L241.86 13.516V14.2246L241.182 14.3856C241.182 14.3856 241.181 15.7966 241.182 16.1392C241.182 16.9367 241.394 17.0898 241.394 17.0898L240.368 17.3333ZM241.961 15.2756C241.961 14.6607 242.048 14.2121 242.236 13.8678C242.46 13.4593 242.827 13.193 243.361 13.0714C244.414 12.8319 244.794 13.4553 244.78 14.2912C244.774 14.5902 244.775 14.7358 244.775 14.7358L242.92 15.1719V15.2017C242.92 15.7859 243.042 16.063 243.412 15.9844C243.732 15.917 243.821 15.7168 243.846 15.4691C243.851 15.4292 243.852 15.3276 243.852 15.3276L244.722 15.1193C244.722 15.1193 244.724 15.1905 244.722 15.2703C244.715 15.6022 244.618 16.4255 243.41 16.7112C242.266 16.9828 241.961 16.2839 241.961 15.2755M243.4 13.7157C243.092 13.7854 242.931 14.087 242.924 14.5867L243.857 14.3644C243.859 14.3418 243.859 14.292 243.859 14.214C243.857 13.8367 243.741 13.6376 243.4 13.7157ZM250.305 13.2529C250.269 12.1995 250.543 11.3635 251.718 11.0973C252.467 10.9271 252.751 11.1219 252.895 11.3103C253.034 11.49 253.087 11.7324 253.087 12.0718L253.088 12.1341L252.169 12.3526L252.168 12.2247C252.169 11.8221 252.057 11.669 251.764 11.7422C251.417 11.8296 251.276 12.1596 251.276 12.8158C251.276 13.0488 251.277 13.0906 251.277 13.122C251.277 13.7889 251.368 14.0942 251.769 14.0103C252.117 13.9384 252.164 13.6332 252.17 13.3655C252.171 13.3235 252.172 13.189 252.172 13.189L253.091 12.9721C253.091 12.9721 253.091 13.0399 253.091 13.1153C253.089 13.9898 252.628 14.5409 251.765 14.7419C250.575 15.0207 250.342 14.3333 250.305 13.2529M247.127 14.7278C247.127 13.9265 247.596 13.6731 248.303 13.3808C248.938 13.118 248.952 12.9875 248.954 12.7591C248.958 12.5669 248.869 12.4024 248.553 12.4831C248.447 12.5044 248.352 12.5606 248.282 12.6428C248.213 12.7249 248.173 12.8281 248.17 12.9356C248.165 12.9947 248.163 13.0539 248.164 13.1132L247.273 13.3235C247.267 13.146 247.288 12.9686 247.334 12.7972C247.477 12.3181 247.899 11.9957 248.629 11.8269C249.577 11.6085 249.892 12.0244 249.894 12.6713V14.2033C249.894 14.9442 250.031 15.0528 250.031 15.0528L249.157 15.2597C249.108 15.1586 249.069 15.0535 249.039 14.9456C249.039 14.9456 248.848 15.428 248.188 15.5832C247.494 15.7467 247.127 15.3169 247.127 14.7278ZM248.948 13.6336C248.801 13.737 248.645 13.8281 248.483 13.9061C248.192 14.0485 248.06 14.2242 248.06 14.4948C248.06 14.7291 248.205 14.883 248.469 14.8178C248.752 14.7465 248.948 14.4824 248.948 14.1155V13.6336ZM235.348 19.7579C235.249 19.7578 235.151 19.7307 235.065 19.6796C234.979 19.6285 234.909 19.5553 234.861 19.4676C234.814 19.3798 234.79 19.2809 234.794 19.1812C234.798 19.0814 234.829 18.9846 234.883 18.9008L234.889 18.8928L234.9 18.89L236.206 18.5818V19.5735L236.185 19.5782C235.945 19.6361 235.704 19.6921 235.462 19.7461C235.425 19.754 235.387 19.7579 235.348 19.7579ZM235.348 21.0265C235.201 21.0265 235.061 20.9682 234.957 20.8643C234.853 20.7605 234.794 20.6197 234.794 20.4727C234.794 20.3657 234.825 20.2609 234.883 20.1712L234.889 20.1621L234.9 20.1593L236.206 19.8512V20.8428L236.185 20.8481C235.889 20.9193 235.535 21.0012 235.462 21.0158C235.425 21.023 235.387 21.0266 235.348 21.0265ZM235.348 22.2976C235.201 22.2975 235.06 22.239 234.956 22.1351C234.853 22.0312 234.794 21.8902 234.794 21.7433C234.794 21.6362 234.825 21.5314 234.883 21.4419L234.889 21.4319L236.206 21.1217V22.1132L236.185 22.1186C235.872 22.1939 235.525 22.2724 235.462 22.2862C235.425 22.2937 235.387 22.2975 235.348 22.2976ZM236.206 12.7551V18.3036L235.194 18.5428L235.194 12.9942L236.206 12.7551ZM237.714 18.0706C237.715 17.988 237.7 17.9059 237.669 17.8292C237.638 17.7525 237.592 17.6827 237.534 17.6238C237.476 17.565 237.407 17.5182 237.331 17.4863C237.254 17.4544 237.173 17.438 237.09 17.438C237.007 17.438 236.925 17.4544 236.849 17.4863C236.773 17.5182 236.704 17.565 236.645 17.6238C236.587 17.6827 236.542 17.7525 236.511 17.8292C236.48 17.9059 236.465 17.988 236.466 18.0706L236.467 23.2567C236.467 23.7046 236.645 24.1339 236.962 24.4507C237.279 24.7675 237.708 24.9458 238.156 24.9467C238.628 24.9467 239.922 24.9444 239.922 24.9444L239.923 22.7809L239.923 20.3683C239.924 20.2338 239.891 20.1013 239.827 19.9827C239.764 19.864 239.672 19.7628 239.56 19.6881L237.986 18.6185L237.985 21.0472C237.985 21.0649 237.982 21.0823 237.975 21.0986C237.969 21.1149 237.959 21.1297 237.946 21.1422C237.934 21.1546 237.919 21.1645 237.903 21.1713C237.886 21.178 237.869 21.1815 237.851 21.1815C237.834 21.1815 237.816 21.178 237.8 21.1713C237.784 21.1645 237.769 21.1546 237.756 21.1422C237.744 21.1297 237.734 21.1149 237.727 21.0986C237.72 21.0823 237.717 21.0649 237.717 21.0472C237.717 21.0212 237.714 18.3914 237.714 18.0706ZM238.557 14.2015C238.366 14.2459 238.186 14.331 238.031 14.4512C237.875 14.5713 237.748 14.7236 237.656 14.8976V14.5076L236.746 14.7232L236.747 17.2135C236.907 17.1503 237.081 17.1326 237.25 17.1621C237.419 17.1917 237.577 17.2675 237.706 17.3812V15.7733C237.706 15.3881 237.897 15.0804 238.171 15.02C238.377 14.9748 238.549 15.0485 238.549 15.4154L238.55 17.7614L239.509 17.5364V15.0547C239.509 14.453 239.278 14.0324 238.557 14.2015ZM252.497 10.6501C252.379 10.6503 252.264 10.6156 252.167 10.5504C252.069 10.4853 251.993 10.3927 251.948 10.2843C251.903 10.1759 251.891 10.0566 251.914 9.94154C251.937 9.82644 251.994 9.72071 252.077 9.63772C252.16 9.55474 252.265 9.49823 252.38 9.47535C252.495 9.45247 252.615 9.46425 252.723 9.50919C252.832 9.55414 252.924 9.63023 252.989 9.72783C253.054 9.82544 253.089 9.94017 253.089 10.0575C253.089 10.2146 253.026 10.3653 252.915 10.4764C252.804 10.5875 252.654 10.6499 252.497 10.6501ZM252.497 9.53879C252.394 9.53877 252.294 9.56917 252.208 9.62613C252.123 9.6831 252.057 9.76408 252.017 9.85883C251.978 9.95359 251.968 10.0579 251.988 10.1585C252.008 10.2591 252.057 10.3515 252.13 10.424C252.202 10.4966 252.295 10.546 252.395 10.566C252.496 10.5861 252.6 10.5758 252.695 10.5366C252.79 10.4973 252.871 10.4309 252.928 10.3456C252.985 10.2604 253.015 10.1601 253.015 10.0575C253.015 9.92002 252.96 9.78819 252.863 9.69094C252.766 9.59369 252.634 9.53898 252.497 9.53879Z" fill="#231F20"/>
<path d="M252.28 9.70417H252.536C252.561 9.70149 252.586 9.70448 252.61 9.71291C252.633 9.72134 252.655 9.73499 252.673 9.75286C252.69 9.77072 252.704 9.79234 252.712 9.81609C252.72 9.83985 252.723 9.86514 252.72 9.89008C252.72 9.98407 252.678 10.0563 252.599 10.0685V10.0699C252.671 10.0773 252.709 10.1169 252.712 10.2186C252.714 10.2646 252.714 10.3215 252.716 10.3658C252.717 10.3782 252.72 10.3905 252.726 10.4014C252.732 10.4124 252.74 10.4216 252.751 10.4283H252.62C252.608 10.4092 252.601 10.3869 252.601 10.364C252.597 10.3208 252.598 10.2799 252.596 10.2274C252.594 10.1484 252.57 10.1138 252.49 10.1138H252.396V10.4282H252.28V9.70417ZM252.488 10.0266C252.504 10.0281 252.52 10.026 252.535 10.0206C252.549 10.0152 252.563 10.0065 252.574 9.9953C252.585 9.98407 252.593 9.97053 252.598 9.95565C252.604 9.94076 252.605 9.92492 252.604 9.90925C252.604 9.83201 252.571 9.79139 252.494 9.79139H252.396V10.0266H252.488Z" fill="#231F20"/>
</g>
<defs>
<linearGradient id="paint0_linear_1_14387" x1="98.5847" y1="21.584" x2="98.8787" y2="10.5558" gradientUnits="userSpaceOnUse">
<stop stop-color="#222357"/>
<stop offset="1" stop-color="#254AA5"/>
</linearGradient>
<linearGradient id="paint1_linear_1_14387" x1="171.995" y1="5.99529" x2="171.995" y2="25.998" gradientUnits="userSpaceOnUse">
<stop stop-color="#F9AA4B"/>
<stop offset="1" stop-color="#F7931A"/>
</linearGradient>
</defs>
</svg>
